<?xml version="1.0" encoding="UTF-8" standalone="no"?>
<!DOCTYPE svg PUBLIC "-//W3C//DTD SVG 1.1//EN" "http://www.w3.org/Graphics/SVG/1.1/DTD/svg11.dtd">
<svg width="100%" height="100%" viewBox="0 0 431 410" version="1.1" xmlns="http://www.w3.org/2000/svg" xmlns:xlink="http://www.w3.org/1999/xlink" xml:space="preserve" xmlns:serif="http://www.serif.com/" style="fill-rule:evenodd;clip-rule:evenodd;stroke-linecap:round;stroke-linejoin:round;stroke-miterlimit:1.5;">
    <g transform="matrix(1,0,0,1,-384.931934,-110.446337)">
        <g transform="matrix(2.770048,0,0,2.770048,-966.298348,-629.548962)">
            <g id="card" transform="matrix(1.406991,-0,0,1.393431,100.592491,-189.873026)">
                <g transform="matrix(0.140826,0,0,2.1059,293.495632,-426.046505)">
                    <rect x="333.333" y="386.667" width="316.667" height="21.176" style="stroke:black;stroke-width:0.72px;"/>
                </g>
                <g transform="matrix(0.140826,0,0,2.1059,290.391473,-429.614843)">
                    <rect x="333.333" y="386.667" width="316.667" height="21.176" style="fill:rgb(36,140,227);stroke:black;stroke-width:0.72px;"/>
                </g>
            </g>
            <g id="card1" serif:id="card" transform="matrix(1.406991,-0,0,1.393431,100.324678,-268.112632)">
                <g transform="matrix(0.140826,0,0,2.1059,293.495632,-426.046505)">
                    <rect x="333.333" y="386.667" width="316.667" height="21.176" style="stroke:black;stroke-width:0.72px;"/>
                </g>
                <g transform="matrix(0.140826,0,0,2.1059,290.391473,-429.614843)">
                    <rect x="333.333" y="386.667" width="316.667" height="21.176" style="fill:rgb(2,232,63);stroke:black;stroke-width:0.72px;"/>
                </g>
            </g>
            <g id="card2" serif:id="card" transform="matrix(1.406991,-0,0,1.393431,15.555284,-189.039141)">
                <g transform="matrix(0.140826,0,0,2.1059,293.495632,-426.046505)">
                    <rect x="333.333" y="386.667" width="316.667" height="21.176" style="stroke:black;stroke-width:0.72px;"/>
                </g>
                <g transform="matrix(0.140826,0,0,2.1059,290.391473,-429.614843)">
                    <rect x="333.333" y="386.667" width="316.667" height="21.176" style="fill:rgb(246,64,125);stroke:black;stroke-width:0.72px;"/>
                </g>
            </g>
            <g id="card3" serif:id="card" transform="matrix(1.406991,-0,0,1.393431,13.927503,-268.112632)">
                <g transform="matrix(0.140826,0,0,2.1059,293.495632,-426.046505)">
                    <rect x="333.333" y="386.667" width="316.667" height="21.176" style="stroke:black;stroke-width:0.72px;"/>
                </g>
                <g transform="matrix(0.140826,0,0,2.1059,290.391473,-429.614843)">
                    <rect x="333.333" y="386.667" width="316.667" height="21.176" style="fill:rgb(233,157,64);stroke:black;stroke-width:0.72px;"/>
                </g>
            </g>
            <g id="card4" serif:id="card" transform="matrix(2.003191,0,0,1.983885,-158.393635,-473.071388)">
                <g transform="matrix(0.140826,0,0,2.1059,292.553044,-426.998266)">
                    <rect x="333.333" y="386.667" width="316.667" height="21.176" style="stroke:black;stroke-width:0.51px;"/>
                </g>
                <g transform="matrix(0.140826,0,0,2.1059,290.391473,-429.614843)">
                    <rect x="333.333" y="386.667" width="316.667" height="21.176" style="fill:rgb(171,127,238);stroke:black;stroke-width:0.51px;"/>
                </g>
                <g transform="matrix(1,0,0,1,3.494425,-2.016246)">
                    <g transform="matrix(0.596926,-0,0,0.602735,7.662988,220.874092)">
                        <g transform="matrix(69.690907,0,0,69.690907,601.293496,337.756858)">
                        </g>
                        <text x="562.476px" y="337.757px" style="font-family:'IBMPlexSans-BoldItalic', 'IBM Plex Sans', sans-serif;font-weight:700;font-style:italic;font-size:69.691px;fill:rgb(64,65,78);stroke:black;stroke-width:1.24px;stroke-linecap:butt;stroke-miterlimit:2;">F</text>
                    </g>
                    <g transform="matrix(0.596926,-0,0,0.602735,9.659802,219.361907)">
                        <g transform="matrix(69.690907,0,0,69.690907,601.293496,337.756858)">
                        </g>
                        <text x="562.476px" y="337.757px" style="font-family:'IBMPlexSans-BoldItalic', 'IBM Plex Sans', sans-serif;font-weight:700;font-style:italic;font-size:69.691px;fill:white;stroke:black;stroke-width:1.24px;stroke-linecap:butt;stroke-miterlimit:2;">F</text>
                    </g>
                </g>
            </g>
        </g>
    </g>
</svg>
